<?xml version="1.0" encoding="iso-8859-1"?>
<!-- Generator: Adobe Illustrator 19.0.0, SVG Export Plug-In . SVG Version: 6.00 Build 0)  -->
<svg version="1.1" id="Layer_1" xmlns="http://www.w3.org/2000/svg" xmlns:xlink="http://www.w3.org/1999/xlink" x="0px" y="0px"
	 viewBox="0 0 512.001 512.001" style="enable-background:new 0 0 512.001 512.001;" xml:space="preserve">
<g>
	<g>
		<path d="M231.589,289.781l-51.053-84.005c-3.202-5.268-10.07-6.948-15.339-3.742c-5.27,3.202-6.945,10.07-3.743,15.339
			l51.053,84.005c2.102,3.459,5.781,5.368,9.552,5.368c1.975,0,3.977-0.525,5.787-1.625
			C233.115,301.917,234.791,295.049,231.589,289.781z"/>
	</g>
</g>
<g>
	<g>
		<path d="M252.79,324.665l-0.209-0.342c-3.213-5.263-10.082-6.927-15.345-3.714c-5.264,3.212-6.926,10.082-3.714,15.345
			l0.209,0.342c2.104,3.448,5.777,5.35,9.541,5.35c1.982,0,3.989-0.528,5.804-1.636C254.339,336.798,256.002,329.927,252.79,324.665
			z"/>
	</g>
</g>
<g>
	<g>
		<path d="M507.637,358.298L367.875,159.123c-4.484-6.396-11.824-10.215-19.636-10.215c-7.813,0-15.153,3.819-19.633,10.211
			l-66.139,94.255l-76.239-125.446c-4.562-7.506-12.53-11.986-21.314-11.986c-8.783,0-16.751,4.481-21.312,11.986L3.675,358.167
			c-4.745,7.805-4.904,17.217-0.426,25.179s12.603,12.714,21.738,12.714h279.853h0.004h0.001h0.012h183.147
			c8.98,0,17.135-4.951,21.279-12.923C513.427,375.168,512.796,365.651,507.637,358.298z M307.119,372.403
			c-0.256,0.454-0.698,0.975-1.433,1.207c-0.112,0.035-0.232,0.061-0.357,0.081c-0.161,0.017-0.32,0.039-0.489,0.04H24.987
			c-1.263,0.001-1.935-0.723-2.275-1.331c-0.343-0.607-0.612-1.557,0.045-2.637l139.929-230.241c0.63-1.037,1.561-1.255,2.231-1.255
			c0.671,0,1.602,0.218,2.232,1.255l85.088,140.005c0.008,0.012,0.012,0.027,0.02,0.039l54.816,90.194
			C307.73,370.843,307.461,371.795,307.119,372.403z M489.472,372.837c-0.466,0.894-1.22,0.894-1.468,0.894H329.685
			c0.008-0.067,0.007-0.135,0.013-0.202c0.054-0.536,0.089-1.074,0.107-1.611c0.006-0.159,0.006-0.316,0.008-0.474
			c0.007-0.48-0.001-0.959-0.022-1.439c-0.007-0.156-0.013-0.313-0.023-0.469c-0.035-0.536-0.087-1.07-0.157-1.603
			c-0.011-0.084-0.018-0.169-0.03-0.252c-0.179-1.259-0.46-2.509-0.837-3.74c-0.041-0.133-0.087-0.266-0.131-0.397
			c-0.154-0.474-0.323-0.946-0.506-1.413c-0.061-0.155-0.123-0.31-0.188-0.466c-0.194-0.468-0.405-0.93-0.629-1.39
			c-0.061-0.127-0.118-0.255-0.183-0.381c-0.296-0.582-0.608-1.159-0.952-1.725l-51.029-83.965l71.759-102.264
			c0.327-0.467,0.781-0.703,1.353-0.703c0.57,0,1.025,0.237,1.355,0.708l139.765,199.179
			C489.502,371.327,489.936,371.945,489.472,372.837z"/>
	</g>
</g>
<g>
</g>
<g>
</g>
<g>
</g>
<g>
</g>
<g>
</g>
<g>
</g>
<g>
</g>
<g>
</g>
<g>
</g>
<g>
</g>
<g>
</g>
<g>
</g>
<g>
</g>
<g>
</g>
<g>
</g>
</svg>
