<?xml version="1.0" encoding="iso-8859-1"?>
<!-- Generator: Adobe Illustrator 16.0.0, SVG Export Plug-In . SVG Version: 6.00 Build 0)  -->
<!DOCTYPE svg PUBLIC "-//W3C//DTD SVG 1.1//EN" "http://www.w3.org/Graphics/SVG/1.1/DTD/svg11.dtd">
<svg xmlns="http://www.w3.org/2000/svg" xmlns:xlink="http://www.w3.org/1999/xlink" version="1.1" id="Capa_1" x="0px" y="0px" width="512px" height="512px" viewBox="0 0 519.769 519.77" style="enable-background:new 0 0 519.769 519.77;" xml:space="preserve">
<g>
	<path d="M183.06,490.346h155.279V263.36l9.552-184.088l-1.413-9.812l-17.165-40.052H197.157l-19.612,40.052l-1.652,9.812   l7.173,183.911v227.162H183.06z M338.072,79.272l-9.173,176.52h-0.379v224.753H192.866V258.248l-7.161-178.975H338.072z    M267.232,168.759h-11.443V92.344h11.443V168.759z M260.697,464.61c13.521,0,24.521-11.006,24.521-24.524   c0-13.518-10.994-24.518-24.521-24.518c-13.518,0-24.521,10.988-24.521,24.518C236.176,453.604,247.179,464.61,260.697,464.61z    M260.697,425.375c8.11,0,14.708,6.607,14.708,14.717c0,8.11-6.599,14.707-14.708,14.707c-8.118,0-14.715-6.597-14.715-14.707   C245.982,431.982,252.579,425.375,260.697,425.375z M137.295,0v519.77h245.179V0H137.295z M372.662,509.963H147.101V9.8h225.572   v500.163H372.662z" fill="#e15845"/>
</g>
<g>
</g>
<g>
</g>
<g>
</g>
<g>
</g>
<g>
</g>
<g>
</g>
<g>
</g>
<g>
</g>
<g>
</g>
<g>
</g>
<g>
</g>
<g>
</g>
<g>
</g>
<g>
</g>
<g>
</g>
</svg>
